<svg width="13" height="14" viewBox="0 0 13 14" fill="none" xmlns="http://www.w3.org/2000/svg">
<g clip-path="url(#clip0_126_3822)">
<path d="M6.57903 8.08659C6.50351 8.08659 6.42736 8.06737 6.35718 8.02731C5.12693 7.32407 3.4456 6.14038 3.0535 3.99069C2.9171 3.24066 3.03021 2.03871 3.79755 1.11949C4.22394 0.608826 5.0184 0 6.38249 0C8.42089 0 9.42994 1.3439 9.69397 2.60193C10.0131 4.12058 9.34598 6.09306 7.45381 6.92491C7.22695 7.02371 6.96323 6.92128 6.86315 6.69505C6.76371 6.4684 6.86657 6.20436 7.09301 6.10439C8.54831 5.46469 9.06176 3.95096 8.81694 2.78607C8.5685 1.60239 7.65815 0.895722 6.38217 0.895722C5.56539 0.895722 4.92719 1.16414 4.48552 1.6936C3.95307 2.33159 3.82521 3.22635 3.93491 3.83037C4.18239 5.18613 5.09317 6.27261 6.80152 7.24962C7.01653 7.37235 7.09087 7.6461 6.96825 7.8609C6.88579 8.00552 6.73455 8.08659 6.57903 8.08659Z" fill="black"/>
<path d="M12.2625 13.9995H0.447968C0.200485 13.9995 0 13.799 0 13.5517C0 12.093 0.0421906 10.0437 0.408875 9.08852C0.953507 7.666 3.30539 6.76419 3.57146 6.66614C3.79053 6.58613 4.03566 6.68707 4.13339 6.89941C4.6212 7.96059 5.45454 8.59398 6.36266 8.59398C7.26756 8.59398 8.07079 7.97639 8.56586 6.89941C8.66359 6.68707 8.90894 6.58581 9.1279 6.66614C9.39429 6.76419 11.7459 7.666 12.2902 9.08905C12.6323 9.9789 12.6158 10.9353 12.601 11.7791C12.5983 11.9358 12.5956 12.0877 12.5956 12.2338C12.5956 12.4814 12.3952 12.6818 12.1477 12.6818C11.9002 12.6818 11.6997 12.4814 11.6997 12.2338C11.6997 12.0829 11.7024 11.9254 11.705 11.7635C11.7184 11.0013 11.7332 10.1376 11.4534 9.40959C11.167 8.66148 9.9355 7.98707 9.18344 7.65585C8.52463 8.81209 7.49368 9.48991 6.36212 9.48991C5.21571 9.48991 4.1759 8.81241 3.51559 7.65628C2.76311 7.98804 1.5305 8.66341 1.2451 9.40906C1.02988 9.97046 0.913452 11.2121 0.897644 13.1038H12.2625C12.51 13.1038 12.7105 13.3043 12.7105 13.5517C12.7105 13.7993 12.51 13.9995 12.2625 13.9995Z" fill="black"/>
<path d="M10.1466 12.0647H8.07883C7.83124 12.0647 7.63086 11.8643 7.63086 11.6167V10.2566C7.63086 10.009 7.83124 9.80859 8.07883 9.80859H10.1466C10.3941 9.80859 10.5946 10.009 10.5946 10.2566C10.5946 10.504 10.3941 10.7045 10.1466 10.7045H8.52647V11.1689H10.1466C10.3941 11.1689 10.5946 11.3694 10.5946 11.6169C10.5946 11.8645 10.3941 12.0647 10.1466 12.0647Z" fill="black"/>
</g>
<defs>
<clipPath id="clip0_126_3822">
<rect width="13" height="14" fill="white"/>
</clipPath>
</defs>
</svg>
