<svg width="12" height="12" viewBox="0 0 12 12" fill="none" xmlns="http://www.w3.org/2000/svg">
<path d="M5.75977 1.50121C5.89233 1.50124 6.01955 1.55395 6.11328 1.64769C6.20689 1.74143 6.25977 1.86872 6.25977 2.00121C6.25967 2.13367 6.20695 2.26105 6.11328 2.35472C6.01956 2.44837 5.89226 2.50118 5.75977 2.50121H1.5C1.3674 2.50121 1.24025 2.55393 1.14648 2.64769C1.05283 2.74144 1 2.86869 1 3.00121V10.5002C1 10.6328 1.05272 10.76 1.14648 10.8537C1.24025 10.9475 1.3674 11.0002 1.5 11.0002H8.49902C8.63153 11.0002 8.75879 10.9474 8.85254 10.8537C8.9463 10.76 8.99902 10.6328 8.99902 10.5002V6.74046C8.99904 6.60797 9.05187 6.48068 9.14551 6.38695C9.23917 6.29328 9.36657 6.24057 9.49902 6.24046C9.63151 6.24046 9.7588 6.29334 9.85254 6.38695C9.94628 6.48069 9.999 6.60789 9.99902 6.74046V10.5002C9.99902 10.8979 9.84165 11.2795 9.56055 11.5608C9.27926 11.8421 8.89682 12.0002 8.49902 12.0002H1.5C1.1022 12.0002 0.720741 11.8421 0.439453 11.5608C0.158165 11.2795 0 10.898 0 10.5002V3.00121C0 2.60349 0.158274 2.22193 0.439453 1.94066C0.720741 1.65937 1.1022 1.50121 1.5 1.50121H5.75977ZM10.5371 0.00608826C10.9113 0.0409124 11.2611 0.207659 11.5244 0.475815C11.7919 0.739352 11.9578 1.08918 11.9922 1.46312C12.0103 1.6499 11.9871 1.83883 11.9248 2.01585C11.8625 2.19275 11.7628 2.35427 11.6318 2.48851L7.1709 6.94945C7.09173 7.02901 6.98746 7.07903 6.87598 7.09203L5.27148 7.28246C5.25204 7.28483 5.23248 7.28642 5.21289 7.28636C5.14231 7.28636 5.0722 7.27132 5.00781 7.24242C4.94345 7.2135 4.88575 7.17112 4.83887 7.11839C4.79196 7.06558 4.75649 7.00317 4.73535 6.93578C4.71421 6.86838 4.70749 6.79693 4.71582 6.72679L4.90625 5.1223C4.9193 5.01092 4.97031 4.90745 5.0498 4.82835L9.5127 0.367416C9.64672 0.236097 9.80835 0.135753 9.98535 0.0734711C10.1622 0.0112316 10.3505 -0.0123115 10.5371 0.00608826ZM10.8174 1.18089C10.682 1.04701 10.3833 0.911541 10.2207 1.07542L5.88086 5.41429L5.78613 6.2141L6.58789 6.11937L10.9268 1.7805C11.092 1.61499 10.9528 1.31486 10.8174 1.18089Z" fill="#939494"/>
</svg>
