<svg width="26" height="26" viewBox="0 0 26 26" fill="none" xmlns="http://www.w3.org/2000/svg">
<path d="M21.1295 22.6388L14.3379 15.8471C13.7989 16.2783 13.179 16.6197 12.4783 16.8713C11.7776 17.1228 11.0319 17.2486 10.2414 17.2486C8.28293 17.2486 6.62563 16.5701 5.26946 15.2132C3.91329 13.8564 3.23485 12.1991 3.23413 10.2413C3.23341 8.28363 3.91186 6.62633 5.26946 5.26944C6.62707 3.91255 8.28437 3.23411 10.2414 3.23411C12.1984 3.23411 13.856 3.91255 15.2143 5.26944C16.5727 6.62633 17.2508 8.28363 17.2486 10.2413C17.2486 11.0319 17.1228 11.7775 16.8713 12.4783C16.6197 13.179 16.2784 13.7989 15.8472 14.3379L22.6388 21.1295L21.1295 22.6388ZM10.2414 15.0925C11.5889 15.0925 12.7345 14.621 13.6781 13.6781C14.6218 12.7352 15.0932 11.5896 15.0925 10.2413C15.0918 8.89308 14.6203 7.74785 13.6781 6.80564C12.7359 5.86344 11.5903 5.39162 10.2414 5.39018C8.89238 5.38874 7.74715 5.86056 6.80567 6.80564C5.86418 7.75072 5.39236 8.89595 5.3902 10.2413C5.38805 11.5867 5.85987 12.7323 6.80567 13.6781C7.75146 14.6239 8.8967 15.0954 10.2414 15.0925Z" fill="#939494"/>
</svg>
