<svg width="124" height="124" viewBox="0 0 124 124" fill="none" xmlns="http://www.w3.org/2000/svg">
<path d="M61.88 123.76C27.664 123.76 0 96.096 0 61.88C0 27.664 27.664 0 61.88 0C96.096 0 123.76 27.664 123.76 61.88C123.76 96.096 96.096 123.76 61.88 123.76ZM61.88 7.28C31.668 7.28 7.28 31.668 7.28 61.88C7.28 92.092 31.668 116.48 61.88 116.48C92.092 116.48 116.48 92.092 116.48 61.88C116.48 31.668 92.092 7.28 61.88 7.28Z" fill="#7CD227"/>
<path d="M54.5996 88.816L22.9316 57.1479L28.0276 52.0519L54.5996 78.6239L95.7316 37.4919L100.828 42.5879L54.5996 88.816Z" fill="#7CD227"/>
</svg>
